<svg viewBox="0 0 100 100" xmlns="http://www.w3.org/2000/svg"><path d="M66 48H34c-1.1 0-2 .9-2 2s.9 2 2 2h32c1.1 0 2-.9 2-2s-.9-2-2-2zM66 34H34c-1.1 0-2 .9-2 2s.9 2 2 2h32c1.1 0 2-.9 2-2s-.9-2-2-2zM66 62H34c-1.1 0-2 .9-2 2s.9 2 2 2h32c1.1 0 2-.9 2-2s-.9-2-2-2z"/><path d="M76 17.6c-2.3-4.1-6.6-6.6-11.3-6.6H35.3c-4.7 0-9 2.5-11.3 6.6l-14.8 26c-2.3 4-2.3 8.9 0 12.9l14.8 26c2.3 4.1 6.6 6.6 11.3 6.6h29.3c4.7 0 9-2.5 11.3-6.6l14.8-26c2.3-4 2.3-8.9 0-12.9L76 17.6zm11.3 36.9l-14.8 26c-1.6 2.8-4.6 4.6-7.8 4.6H35.3c-3.2 0-6.2-1.7-7.8-4.6l-14.8-26c-1.6-2.8-1.6-6.2 0-8.9l14.8-26c1.6-2.8 4.6-4.6 7.8-4.6h29.3c3.2 0 6.2 1.7 7.8 4.6l14.8 26c1.7 2.7 1.7 6.1.1 8.9z"/></svg>
