<svg viewBox="0 0 100 100" xmlns="http://www.w3.org/2000/svg"><path style="text-indent:0;text-align:start;line-height:normal;text-transform:none;block-progression:tb;marker:none;-inkscape-font-specification:Sans" d="M35.75 8a2 2 0 0 0-.844.313l-31 20A2 2 0 0 0 3 30v40a2 2 0 0 0 2 2h46.188C52.657 83.273 62.332 92 74 92c5.03 0 9.711-1.627 13.5-4.375a2.003 2.003 0 1 0-2.344-3.25A18.94 18.94 0 0 1 74 88a18.97 18.97 0 0 1-19-19c0-10.517 8.483-19 19-19s19 8.483 19 19c0 1.801-.525 3.145-1.313 4.031-.787.886-1.853 1.406-3.468 1.406-2.66 0-5.219-2.281-5.219-4.78V61a2.002 2.002 0 0 0-4-.188C77.57 59.681 75.836 59 73.906 59 68.842 59 65 63.648 65 69s3.842 10 8.906 10c2.95 0 5.46-1.594 7.063-3.969a9.484 9.484 0 0 0 7.25 3.406c2.588 0 4.92-1.006 6.469-2.75C96.237 73.945 97 71.584 97 69c0-12.679-10.321-23-23-23-1.717 0-3.39.204-5 .563V30a2 2 0 0 0-.906-1.688l-31-20A2 2 0 0 0 35.937 8a2 2 0 0 0-.187 0zm.25 4.406l27.563 17.782L36 47.624 8.437 30.187 36 12.407zM7 34l27.938 17.688a2 2 0 0 0 2.124 0L65 34v13.844C57.079 51.229 51.43 58.954 51.031 68H7V34zm66.906 29c2.558 0 4.906 2.516 4.906 6s-2.348 6-4.906 6C71.35 75 69 72.484 69 69s2.349-6 4.906-6z" font-weight="400" color="#000" overflow="visible" font-family="Sans"/></svg>
