<svg height="100" width="100" xmlns="http://www.w3.org/2000/svg" viewBox="0 0 316 306" fill-rule="evenodd" clip-rule="evenodd" shape-rendering="geometricPrecision" text-rendering="geometricPrecision" image-rendering="optimizeQuality"><path d="M144 5L11 106c-7 5-11 13-11 22v140c0 21 17 38 38 38h240c21 0 38-17 38-38V128c-1-9-5-17-11-22L171 5c-8-6-19-7-27 0zM15 268V133l93 70-92 72c-1-2-1-5-1-7zm263 23H38c-6 0-9-2-14-4l129-100c3-2 7-2 9 0l129 100c-4 2-8 4-13 4zm23-23c0 2-1 5-1 7l-92-71 93-71v135zM162 16l134 102-100 76-25-19c-8-6-19-6-27 0l-23 18-101-75L153 17c3-2 7-3 9-1z"/></svg>