<svg viewBox="0 0 100 100" xmlns="http://www.w3.org/2000/svg" version="1.2" baseProfile="tiny"><path d="M90.647 34.459L67.5 28.257V10A2.5 2.5 0 0 0 65 7.5H10A2.5 2.5 0 0 0 7.5 10v55a2.5 2.5 0 0 0 2.5 2.5h12.265l-2.041 7.618a2.501 2.501 0 0 0 1.768 3.062l53.126 14.235a2.503 2.503 0 0 0 3.062-1.769L92.415 37.52a2.5 2.5 0 0 0-1.768-3.061zM12.5 62.5v-50h50v50h-50zm61.498 24.438l-48.296-12.94 1.741-6.498H65a2.5 2.5 0 0 0 2.5-2.5V33.433l19.438 5.208-12.94 48.297z"/><path d="M50 45c-2.757 0-5 2.243-5 5s2.243 5 5 5 5-2.243 5-5-2.243-5-5-5zM37.5 32.5c-2.757 0-5 2.243-5 5s2.243 5 5 5 5-2.243 5-5-2.243-5-5-5zM25 20c-2.757 0-5 2.243-5 5s2.243 5 5 5 5-2.243 5-5-2.243-5-5-5z"/></svg>
